<svg viewBox="0 0 40 40" fill="none" xmlns="http://www.w3.org/2000/svg">
<path fill-rule="evenodd" clip-rule="evenodd" d="M8.48372 21.1621L8.78677 19.5828L16.7212 10.7909C16.7864 10.7225 16.8843 10.702 16.9691 10.7387L26.7547 15.4013L27.9972 14.8285L29.1307 12.2496C29.1731 12.153 29.271 12.0983 29.3713 12.1137C29.4716 12.1299 29.5491 12.2128 29.5621 12.318L31.212 16.1083C31.2226 16.1904 31.1908 16.2725 31.1296 16.3238L28.5727 18.693L26.8406 25.6695C26.8145 25.7747 26.724 25.8474 26.6212 25.8474H26.6204H26.6114L23.8647 25.7627C23.7652 25.7584 23.6796 25.6875 23.6543 25.5866L23.0811 23.3463L21.8734 21.4912L20.6022 22.1097L22.4621 24.5588C22.4841 24.5845 22.4996 24.6153 22.5094 24.6486L22.9522 26.2177C22.971 26.2826 22.9612 26.3536 22.9269 26.4109L18.9618 32.0819L17.3184 31.8945L21.4809 26.4109L21.2083 24.9524L18.5303 22.0381C18.4798 21.9782 18.4618 21.8953 18.4822 21.8175C18.5026 21.7405 18.5589 21.679 18.6315 21.6542L21.7535 20.3866L21.7951 19.0692L22.8554 19.0846L22.791 21.124L24.0843 23.1111C24.099 23.1334 24.1096 23.1582 24.1161 23.1838L24.6559 24.6624L25.8414 24.7334L27.1123 20.0462L26.5463 20.5706L26.5455 20.5723L25.7571 19.2669L29.8439 16.0158L29.3713 14.2131L28.7876 15.7924C28.7648 15.8454 28.7232 15.8873 28.6726 15.9104L25.2585 17.3215L24.7272 16.336L25.2805 16.0809L17.0822 12.5212L8.78677 21.478L8.48372 21.1621ZM18.9618 32.0819L19.5224 32.1459H18.9171L18.9618 32.0819ZM15.4527 30.6378L16.7853 31.1344L16.7861 31.1335L19.8901 24.8402C19.9162 24.7821 19.9195 24.7145 19.8974 24.6538C19.8754 24.5931 19.8314 24.5443 19.7743 24.5187L16.968 23.373C16.8913 23.3388 16.8016 23.3517 16.7364 23.4072L13.6682 26.6008L10.6039 26.2158L11.21 27.4792L14.2405 27.7951C14.2903 27.7933 14.3376 27.7745 14.3759 27.742L16.968 24.6365L18.477 25.2498L15.4527 30.6378Z" fill="#0ABAB5"/>
<path d="M20.9135 39.924V37.1879C29.9622 37.1879 37.3236 29.4691 37.3236 19.9809C37.3236 10.4927 29.9622 2.77388 20.9135 2.77388C11.8647 2.77388 4.50339 10.4927 4.50339 19.9809H1.88152C1.88152 10.1851 9.71927 -0.702499 20.9135 0.037822C30.783 -0.697816 40.8221 9.41684 39.9454 19.9809C39.9454 29.7767 30.6699 41.0342 20.9135 39.924Z" fill="#0ABAB5"/>
<path d="M7.06102 19.9795H0L3.53051 23.6815L7.06102 19.9795Z" fill="#0ABAB5"/>
<path d="M20.2337 6.36873V8.22708C14.0877 8.22708 9.08789 13.4697 9.08789 19.9142C9.08789 26.3586 14.0877 31.6013 20.2337 31.6013C26.3797 31.6013 31.3796 26.3586 31.3796 19.9142H33.1604C33.1604 26.5676 27.8369 33.9625 20.2337 33.4597C13.5303 33.9593 6.71169 27.0894 7.30709 19.9142C7.30709 13.2608 12.4228 6.36873 20.2337 6.36873Z" fill="#0ABAB5"/>
<path d="M29.6449 19.915H34.4408L32.0428 17.4006L29.6449 19.915Z" fill="#0ABAB5"/>
</svg>
